<mxfile host="drawio.corp.amazon.com" modified="2023-11-20T04:35:05.847Z" agent="Mozilla/5.0 (Macintosh; Intel Mac OS X 10.15; rv:109.0) Gecko/20100101 Firefox/115.0" etag="Sp8HzcGfUdeCDZc4XVIk" version="21.7.4" type="device">
  <diagram name="Page-1" id="dWqWt7GZoictayHN5xkV">
    <mxGraphModel dx="1047" dy="797" grid="1" gridSize="10" guides="1" tooltips="1" connect="1" arrows="1" fold="1" page="1" pageScale="1" pageWidth="1169" pageHeight="827" math="0" shadow="0">
      <root>
        <mxCell id="0" />
        <mxCell id="1" parent="0" />
        <mxCell id="eAJhPJWCYxwFFsCCJHNh-1" value="&lt;span&gt;&lt;/span&gt;&lt;span&gt;&lt;/span&gt;&lt;table aria-labelledby=&quot;heading65-1700454550009-3639&quot; aria-rowcount=&quot;-1&quot; role=&quot;table&quot; class=&quot;awsui_table_wih1l_51dxw_144 awsui_table-layout-fixed_wih1l_51dxw_150&quot;&gt;&lt;tbody&gt;&lt;tr data-selection-item=&quot;item&quot; class=&quot;awsui_row_wih1l_51dxw_301 awsui_row-selected_wih1l_51dxw_302&quot;&gt;&lt;td class=&quot;awsui_selection-control_wih1l_51dxw_221 awsui_body-cell_c6tup_t94xq_93 awsui_body-cell-last-row_c6tup_t94xq_148 awsui_body-cell-selected_c6tup_t94xq_148 awsui_has-selection_c6tup_t94xq_139&quot;&gt;&lt;br&gt;&lt;/td&gt;&lt;td class=&quot;awsui_body-cell_c6tup_t94xq_93 awsui_body-cell-last-row_c6tup_t94xq_148 awsui_body-cell-selected_c6tup_t94xq_148&quot;&gt;&lt;span style=&quot;display: flex;&quot;&gt;&lt;span style=&quot;overflow: hidden; text-overflow: ellipsis;&quot; class=&quot;&quot; tabindex=&quot;0&quot;&gt;alb-rule-restriction-vpc-1&lt;/span&gt;&lt;/span&gt;&lt;/td&gt;&lt;/tr&gt;&lt;/tbody&gt;&lt;/table&gt;&amp;nbsp;(10.0.0.0/16)" style="points=[[0,0],[0.25,0],[0.5,0],[0.75,0],[1,0],[1,0.25],[1,0.5],[1,0.75],[1,1],[0.75,1],[0.5,1],[0.25,1],[0,1],[0,0.75],[0,0.5],[0,0.25]];outlineConnect=0;gradientColor=none;html=1;whiteSpace=wrap;fontSize=12;fontStyle=0;container=1;pointerEvents=0;collapsible=0;recursiveResize=0;shape=mxgraph.aws4.group;grIcon=mxgraph.aws4.group_vpc;strokeColor=#248814;fillColor=none;verticalAlign=top;align=left;spacingLeft=30;fontColor=#AAB7B8;dashed=0;" vertex="1" parent="1">
          <mxGeometry x="120" y="240" width="280" height="240" as="geometry" />
        </mxCell>
        <mxCell id="eAJhPJWCYxwFFsCCJHNh-8" style="edgeStyle=orthogonalEdgeStyle;rounded=0;orthogonalLoop=1;jettySize=auto;html=1;" edge="1" parent="eAJhPJWCYxwFFsCCJHNh-1" source="eAJhPJWCYxwFFsCCJHNh-6" target="eAJhPJWCYxwFFsCCJHNh-7">
          <mxGeometry relative="1" as="geometry" />
        </mxCell>
        <mxCell id="eAJhPJWCYxwFFsCCJHNh-6" value="&lt;div&gt;Rule1: 11.0.0.0/16 (port 80)&lt;/div&gt;&lt;div&gt;Rule 2: 12.0.0.0/16 (port 8080)&lt;br&gt;&lt;/div&gt;" style="outlineConnect=0;dashed=0;verticalLabelPosition=bottom;verticalAlign=top;align=center;html=1;shape=mxgraph.aws3.application_load_balancer;fillColor=#F58534;gradientColor=none;" vertex="1" parent="eAJhPJWCYxwFFsCCJHNh-1">
          <mxGeometry x="170" y="140" width="47.92" height="50" as="geometry" />
        </mxCell>
        <mxCell id="eAJhPJWCYxwFFsCCJHNh-7" value="Instance with nginx" style="sketch=0;points=[[0,0,0],[0.25,0,0],[0.5,0,0],[0.75,0,0],[1,0,0],[0,1,0],[0.25,1,0],[0.5,1,0],[0.75,1,0],[1,1,0],[0,0.25,0],[0,0.5,0],[0,0.75,0],[1,0.25,0],[1,0.5,0],[1,0.75,0]];outlineConnect=0;fontColor=#232F3E;fillColor=#ED7100;strokeColor=#ffffff;dashed=0;verticalLabelPosition=bottom;verticalAlign=top;align=center;html=1;fontSize=12;fontStyle=0;aspect=fixed;shape=mxgraph.aws4.resourceIcon;resIcon=mxgraph.aws4.ec2;" vertex="1" parent="eAJhPJWCYxwFFsCCJHNh-1">
          <mxGeometry x="30" y="141" width="48" height="48" as="geometry" />
        </mxCell>
        <mxCell id="eAJhPJWCYxwFFsCCJHNh-2" value="&lt;div&gt;alb-rule-restriction-vpc-2&lt;/div&gt;&lt;div&gt;(11.0.0.0/16)&lt;/div&gt;" style="points=[[0,0],[0.25,0],[0.5,0],[0.75,0],[1,0],[1,0.25],[1,0.5],[1,0.75],[1,1],[0.75,1],[0.5,1],[0.25,1],[0,1],[0,0.75],[0,0.5],[0,0.25]];outlineConnect=0;gradientColor=none;html=1;whiteSpace=wrap;fontSize=12;fontStyle=0;container=1;pointerEvents=0;collapsible=0;recursiveResize=0;shape=mxgraph.aws4.group;grIcon=mxgraph.aws4.group_vpc;strokeColor=#248814;fillColor=none;verticalAlign=top;align=left;spacingLeft=30;fontColor=#AAB7B8;dashed=0;" vertex="1" parent="1">
          <mxGeometry x="560" y="240" width="280" height="240" as="geometry" />
        </mxCell>
        <mxCell id="eAJhPJWCYxwFFsCCJHNh-9" value="Bastion Host" style="sketch=0;points=[[0,0,0],[0.25,0,0],[0.5,0,0],[0.75,0,0],[1,0,0],[0,1,0],[0.25,1,0],[0.5,1,0],[0.75,1,0],[1,1,0],[0,0.25,0],[0,0.5,0],[0,0.75,0],[1,0.25,0],[1,0.5,0],[1,0.75,0]];outlineConnect=0;fontColor=#232F3E;fillColor=#ED7100;strokeColor=#ffffff;dashed=0;verticalLabelPosition=bottom;verticalAlign=top;align=center;html=1;fontSize=12;fontStyle=0;aspect=fixed;shape=mxgraph.aws4.resourceIcon;resIcon=mxgraph.aws4.ec2;" vertex="1" parent="eAJhPJWCYxwFFsCCJHNh-2">
          <mxGeometry x="116" y="141" width="48" height="48" as="geometry" />
        </mxCell>
        <mxCell id="eAJhPJWCYxwFFsCCJHNh-4" style="edgeStyle=orthogonalEdgeStyle;rounded=0;orthogonalLoop=1;jettySize=auto;html=1;entryX=1;entryY=0.25;entryDx=0;entryDy=0;" edge="1" parent="1" source="eAJhPJWCYxwFFsCCJHNh-3" target="eAJhPJWCYxwFFsCCJHNh-1">
          <mxGeometry relative="1" as="geometry" />
        </mxCell>
        <mxCell id="eAJhPJWCYxwFFsCCJHNh-5" style="edgeStyle=orthogonalEdgeStyle;rounded=0;orthogonalLoop=1;jettySize=auto;html=1;entryX=0;entryY=0.25;entryDx=0;entryDy=0;" edge="1" parent="1" source="eAJhPJWCYxwFFsCCJHNh-3" target="eAJhPJWCYxwFFsCCJHNh-2">
          <mxGeometry relative="1" as="geometry" />
        </mxCell>
        <mxCell id="eAJhPJWCYxwFFsCCJHNh-3" value="Peering established" style="sketch=0;outlineConnect=0;fontColor=#232F3E;gradientColor=none;fillColor=#8C4FFF;strokeColor=none;dashed=0;verticalLabelPosition=bottom;verticalAlign=top;align=center;html=1;fontSize=12;fontStyle=0;aspect=fixed;pointerEvents=1;shape=mxgraph.aws4.peering;" vertex="1" parent="1">
          <mxGeometry x="450" y="270" width="59" height="59" as="geometry" />
        </mxCell>
        <mxCell id="eAJhPJWCYxwFFsCCJHNh-10" style="edgeStyle=orthogonalEdgeStyle;rounded=0;orthogonalLoop=1;jettySize=auto;html=1;" edge="1" parent="1" source="eAJhPJWCYxwFFsCCJHNh-9" target="eAJhPJWCYxwFFsCCJHNh-6">
          <mxGeometry relative="1" as="geometry" />
        </mxCell>
        <mxCell id="eAJhPJWCYxwFFsCCJHNh-12" value="Send request" style="edgeLabel;html=1;align=center;verticalAlign=middle;resizable=0;points=[];" vertex="1" connectable="0" parent="eAJhPJWCYxwFFsCCJHNh-10">
          <mxGeometry x="0.1595" y="2" relative="1" as="geometry">
            <mxPoint as="offset" />
          </mxGeometry>
        </mxCell>
      </root>
    </mxGraphModel>
  </diagram>
</mxfile>
